<?xml version="1.0" encoding="UTF-8"?>
<!DOCTYPE svg PUBLIC "-//W3C//DTD SVG 1.1//EN" "http://www.w3.org/Graphics/SVG/1.1/DTD/svg11.dtd">
<!-- Creator: CorelDRAW X8 -->
<svg xmlns="http://www.w3.org/2000/svg" xml:space="preserve" width="1000px" height="1000px" version="1.1" style="shape-rendering:geometricPrecision; text-rendering:geometricPrecision; image-rendering:optimizeQuality; fill-rule:evenodd; clip-rule:evenodd"
viewBox="0 0 10000 10000"
 xmlns:xlink="http://www.w3.org/1999/xlink"
 enable-background="new 0 0 512 512">
 <defs>
  <style type="text/css">
   <![CDATA[
    .str0 {stroke:#304A9A;stroke-width:29.9882;stroke-linecap:round}
    .fil7 {fill:none}
    .fil6 {fill:#141F40}
    .fil1 {fill:#304A9A}
    .fil9 {fill:#777777}
    .fil2 {fill:#F2BB22}
    .fil0 {fill:#FFD35A}
    .fil5 {fill:white}
    .fil4 {fill:#304A9A;fill-rule:nonzero}
    .fil3 {fill:#F2BB22;fill-rule:nonzero}
    .fil8 {fill:white;fill-opacity:0.549020}
   ]]>
  </style>
 </defs>
 <g id="Слой_x0020_1">
  <metadata id="CorelCorpID_0Corel-Layer"/>
 </g>
 <g id="Layer_x0020_1">
  <metadata id="CorelCorpID_1Corel-Layer"/>
  <g id="_1642587840096">
   <path class="fil0" d="M522 1218c198,0 359,161 359,359 0,198 -161,359 -359,359 -62,0 -121,-16 -172,-44l-260 44 108 -206c-22,-46 -35,-98 -35,-153 0,-198 161,-359 359,-359z"/>
   <path class="fil1" d="M636 1643c-13,-13 -29,-13 -42,0 -10,10 -20,20 -29,30 -3,2 -5,3 -8,1 -7,-3 -14,-6 -20,-10 -28,-18 -52,-41 -73,-67 -11,-13 -20,-27 -27,-42 -1,-3 -1,-5 2,-8 10,-9 19,-19 29,-29 14,-13 14,-29 0,-43 -8,-8 -15,-15 -23,-23 -8,-8 -16,-16 -24,-24 -13,-12 -29,-12 -42,0 -10,10 -19,20 -29,30 -10,8 -14,19 -15,32 -2,20 3,40 10,59 15,39 37,74 64,106 36,43 79,77 130,101 23,11 46,20 72,21 18,1 33,-3 45,-17 9,-9 18,-18 27,-27 13,-13 13,-29 0,-43 -15,-15 -31,-31 -47,-47z"/>
   <path class="fil1" d="M620 1577l31 -5c-5,-28 -18,-53 -38,-73 -22,-22 -48,-35 -78,-39l-4 31c23,3 43,13 60,30 15,15 26,35 29,56z"/>
   <path class="fil1" d="M668 1445c-35,-35 -80,-58 -129,-64l-4 30c42,6 81,25 111,56 29,29 48,65 55,105l30 -5c-8,-47 -30,-89 -63,-122z"/>
   <path class="fil1" d="M576 341c1,5 1,10 1,15 0,111 -90,201 -201,201 -111,0 -201,-90 -201,-201 0,-5 0,-10 0,-15 8,104 95,186 201,186 106,0 193,-82 200,-186z"/>
   <path class="fil2" d="M576 344c1,-5 1,-10 1,-15 0,-111 -90,-201 -201,-201 -112,0 -201,90 -201,202 0,4 0,9 0,14 8,-104 94,-186 201,-186 106,0 193,82 200,186z"/>
   <path class="fil1" d="M155 389c0,0 217,-203 269,-165 52,38 -123,189 -123,189 0,0 71,-175 -146,-24z"/>
   <path class="fil2" d="M597 304c0,0 -218,204 -270,166 -52,-38 123,-189 123,-189 0,0 -71,175 147,23z"/>
   <path class="fil3" d="M90 746l10 -3c1,0 2,-1 3,-1 1,-1 1,-2 1,-3l0 -83c0,-1 -1,-2 -1,-3 -1,0 -2,-1 -3,-1l-10 -3 0 -5 86 0 0 28 -5 0 -7 -17c0,0 0,-1 -1,-2 0,0 -1,0 -2,0l-35 0 0 38 22 0c1,0 2,0 3,-1 0,0 0,-1 1,-1l5 -13 5 0 0 39 -5 0 -5 -13c-1,0 -1,-1 -2,-2 0,0 -1,0 -2,0l-22 0 0 42 42 0c1,0 1,0 2,0 0,-1 1,-2 1,-2l6 -19 5 0 0 30 -92 0 0 -5zm164 7c-8,0 -15,-1 -21,-4 -6,-2 -12,-6 -16,-11 -4,-4 -8,-10 -10,-17 -3,-7 -4,-15 -4,-23 0,-6 1,-11 2,-16 1,-5 3,-9 5,-13 2,-5 5,-8 8,-12 3,-3 6,-6 10,-8 4,-2 8,-4 12,-5 5,-2 10,-2 14,-2 3,0 6,0 9,0 3,1 6,1 10,2 3,0 6,1 9,2 3,0 5,1 7,2l0 26 -5 0 -6 -14c0,0 -1,-1 -1,-2 -1,0 -1,0 -2,-1 -3,-2 -6,-3 -10,-4 -3,-1 -7,-2 -11,-2 -4,0 -8,1 -11,3 -3,2 -6,5 -9,9 -2,3 -4,8 -5,13 -1,6 -2,12 -2,19 0,8 1,14 2,20 2,5 4,10 7,14 3,4 6,7 11,9 4,2 9,3 15,3 4,0 7,0 10,-1 3,-1 5,-2 8,-3 2,-2 4,-3 5,-5 2,-1 4,-3 5,-4l4 0 0 8c-2,2 -5,4 -8,6 -3,2 -6,4 -9,5 -4,2 -7,3 -11,5 -4,1 -8,1 -12,1zm156 0c0,0 -1,-1 -1,-1 -1,-1 -1,-1 -2,-1l-96 0 0 -5 10 -3c1,0 2,-1 3,-1 0,-1 1,-2 1,-3l0 -83c0,-1 -1,-2 -2,-3 0,0 -1,-1 -2,-1l-10 -3 0 -5 49 0 0 5 -10 3c-1,0 -2,1 -2,1 -1,1 -1,2 -1,3l0 86 41 0 0 -86c0,-1 0,-2 -1,-3 -1,0 -2,-1 -3,-1l-9 -3 0 -5 49 0 0 5 -10 3c-1,0 -2,1 -3,1 -1,1 -1,2 -1,3l0 86 15 0 0 36 -7 0 -8 -25zm56 -7l11 -3c1,0 2,-1 3,-1 0,-1 1,-2 1,-3l0 -86 -23 0c-1,0 -2,0 -2,0 -1,1 -1,1 -1,2l-7 17 -5 0 0 -28 97 0 0 28 -5 0 -6 -17c0,-1 -1,-1 -1,-2 -1,0 -1,0 -2,0l-23 0 0 86c0,1 0,2 1,3 1,0 1,1 2,1l12 3 0 5 -52 0 0 -5zm145 7c-8,0 -15,-1 -21,-4 -7,-2 -12,-6 -17,-11 -4,-5 -7,-10 -10,-17 -2,-7 -3,-15 -3,-23 0,-6 0,-11 1,-16 2,-5 3,-10 5,-14 3,-4 5,-8 8,-11 3,-3 7,-6 11,-8 3,-3 8,-4 12,-5 4,-2 9,-2 14,-2 2,0 5,0 8,0 4,1 7,1 10,2 3,0 6,1 9,2 3,0 6,1 8,2l0 26 -5 0 -6 -14c-1,-1 -1,-1 -2,-2 0,0 -1,-1 -1,-1 -4,-2 -7,-3 -10,-4 -4,-1 -7,-2 -11,-2 -4,0 -8,1 -11,3 -4,2 -7,5 -9,9 -2,3 -4,8 -6,13 -1,6 -2,12 -2,19 0,7 1,14 3,20 1,5 3,10 6,14 3,4 7,7 11,9 5,2 10,3 15,3 4,0 7,-1 10,-1 3,-1 6,-2 8,-4 2,-1 4,-2 6,-4 2,-1 3,-3 5,-4l3 0 0 8c-2,2 -4,4 -7,6 -3,2 -6,4 -10,5 -3,2 -7,3 -11,4 -4,1 -7,2 -11,2z"/>
   <path class="fil4" d="M1030 306l11 -3c2,-1 3,-1 4,-2 0,-1 1,-2 1,-4l0 -96c0,-2 -1,-3 -2,-4 0,-1 -1,-2 -3,-2l-11 -3 0 -6 100 0 0 33 -6 0 -7 -20c-1,0 -1,-1 -2,-2 0,0 -1,-1 -2,-1l-42 0 1 45 26 0c1,0 2,0 3,0 0,-1 1,-2 1,-3l6 -15 6 0 0 46 -6 0 -6 -14c-1,-1 -1,-2 -2,-3 0,0 -1,-1 -2,-1l-26 0 0 50 49 0c1,0 2,0 2,0 1,-1 1,-2 2,-3l7 -22 6 0 0 36 -108 0 0 -6zm119 -4l11 0c2,-2 4,-6 7,-11 2,-5 4,-10 6,-16 2,-6 3,-12 4,-18 1,-7 2,-13 2,-20 0,-2 0,-3 -1,-4 -1,-1 -2,-1 -3,-1l-11 -3 0 -6 86 0 0 6 -9 3c-1,0 -2,1 -3,1 -1,1 -1,2 -1,4l0 65 16 0 0 38 -8 0 -10 -25c-1,-1 -1,-2 -2,-3 -1,0 -2,-1 -3,-1l-59 0c-1,0 -1,1 -2,1 -1,1 -1,2 -2,3l-10 25 -8 0 0 -38zm63 0l0 -69 -23 0c0,8 0,16 -1,23 -1,7 -3,13 -4,19 -2,6 -4,11 -6,16 -2,4 -5,8 -7,11l41 0zm53 4l9 -3c2,0 3,-1 3,-2 1,-1 2,-2 2,-3l0 -61c0,-2 -1,-3 -2,-4 0,-1 -1,-1 -3,-2l-9 -2 0 -6 49 0 0 6 -7 2c-1,1 -2,2 -3,2 -1,1 -1,2 -1,4l0 41 0 8 -1 3 37 -59 0 -7 36 0 0 6 -9 2c-1,1 -2,1 -2,2 -1,1 -2,2 -2,4l0 61c0,1 1,2 2,3 0,1 1,2 3,2l9 3 0 5 -49 0 0 -5 7 -3c1,0 2,-1 3,-2 1,-1 1,-2 1,-3l0 -41 0 -8 0 -3 -36 59 0 6 -37 0 0 -5zm124 0l9 -3c2,0 3,-1 3,-2 1,-1 1,-2 1,-3l0 -61c0,-2 0,-3 -1,-4 -1,-1 -1,-1 -3,-2l-9 -3 0 -5 49 0 0 5 -7 3c-1,1 -2,2 -3,2 -1,1 -1,2 -1,4l0 24 33 0 0 -24c0,-2 -1,-3 -1,-4 -1,0 -2,-1 -3,-2l-7 -3 0 -5 48 0 0 5 -9 3c-1,1 -2,1 -3,2 -1,1 -1,2 -1,4l0 61c0,1 0,2 1,3 1,1 2,2 3,2l9 3 0 5 -48 0 0 -5 7 -3c1,0 2,-1 3,-2 0,-1 1,-2 1,-3l0 -28 -33 0 0 28c0,1 0,2 1,3 1,1 2,2 3,2l7 3 0 5 -49 0 0 -5zm208 0l7 -3c1,-1 2,-1 3,-2 1,-1 1,-2 1,-3l0 -61c0,-2 0,-3 -1,-4 -1,-1 -2,-1 -3,-2l-9 -3 0 -5 50 0 0 5 -9 3c-1,1 -2,1 -2,2 -1,1 -2,2 -2,3l0 62c0,1 1,2 2,3 0,1 1,2 2,2l9 3 0 5 -48 0 0 -5zm-86 0l9 -3c1,0 2,-1 3,-2 1,-1 1,-2 1,-3l0 -61c0,-2 0,-3 -1,-4 -1,-1 -2,-1 -3,-2l-9 -3 0 -5 51 0 0 5 -10 3c-1,1 -2,1 -3,2 0,1 -1,2 -1,4l0 20 13 0c5,0 10,1 14,2 4,0 8,2 11,4 3,2 6,4 8,8 2,3 3,7 3,12 0,5 -1,10 -3,13 -2,4 -5,7 -8,9 -4,2 -8,4 -12,5 -4,1 -9,1 -13,1l-50 0 0 -5zm45 -4c2,0 5,0 7,-1 1,-1 3,-2 4,-4 2,-2 3,-4 3,-6 1,-2 1,-5 1,-8 0,-5 -1,-9 -4,-12 -2,-3 -6,-5 -11,-5l-8 0 0 36 8 0zm160 -98c-5,0 -10,-1 -13,-2 -4,-1 -7,-3 -10,-5 -2,-1 -4,-3 -5,-5 -1,-3 -2,-4 -2,-6l0 -8 18 0 0 4 0 10c1,0 1,1 2,1 1,1 2,1 3,2 2,0 3,0 4,0 1,1 2,1 3,1 1,0 2,0 4,-1 1,0 2,0 3,0 1,-1 2,-1 3,-2 1,0 2,-1 2,-1l0 -10 0 -4 18 0 0 8c0,2 0,3 -1,6 -2,2 -3,4 -6,5 -2,2 -5,4 -9,5 -4,1 -8,2 -14,2zm-57 102l9 -3c1,0 2,-1 3,-2 1,-1 1,-2 1,-3l0 -62c0,-1 0,-2 -1,-3 -1,-1 -2,-1 -3,-2l-9 -3 0 -5 49 0 0 5 -7 3c-1,1 -2,1 -3,2 -1,1 -1,2 -1,3l0 42 -1 8 0 2 36 -58 0 -7 37 0 0 5 -9 3c-1,1 -2,1 -3,2 0,1 -1,2 -1,3l0 62c0,1 1,2 1,3 1,1 2,2 3,2l9 3 0 5 -48 0 0 -5 7 -3c1,-1 2,-1 3,-2 1,-1 1,-2 1,-3l0 -41 0 -8 0 -3 -36 59 0 6 -37 0 0 -5z"/>
   <path class="fil4" d="M1087 532c-9,0 -17,-1 -24,-4 -7,-3 -13,-7 -18,-12 -5,-6 -8,-12 -11,-20 -3,-7 -4,-16 -4,-25 0,-6 1,-12 2,-17 1,-6 3,-11 6,-15 2,-5 5,-9 8,-13 4,-3 8,-7 12,-9 4,-3 8,-5 13,-6 5,-1 10,-2 16,-2 3,0 6,0 9,1 4,0 7,1 11,1 3,1 7,1 10,2 3,1 6,2 8,3l0 29 -5 0 -7 -15c0,-1 -1,-2 -1,-3 -1,0 -2,-1 -2,-1 -4,-2 -8,-4 -11,-5 -4,-1 -8,-1 -12,-1 -5,0 -9,1 -13,3 -3,2 -7,5 -9,9 -3,4 -5,9 -7,15 -1,6 -2,13 -2,21 0,8 1,15 3,22 1,6 4,11 7,16 3,4 7,7 12,9 5,3 11,4 17,4 4,0 8,-1 11,-2 3,-1 6,-2 9,-3 2,-2 4,-3 6,-5 2,-2 4,-3 6,-5l3 0 0 10c-2,2 -5,4 -8,6 -3,2 -7,4 -11,6 -3,2 -7,3 -12,4 -4,2 -8,2 -12,2zm84 0c-6,0 -12,-1 -17,-3 -5,-2 -9,-5 -13,-9 -4,-3 -7,-8 -9,-13 -2,-5 -3,-12 -3,-19 0,-5 1,-11 3,-16 2,-6 5,-10 9,-14 3,-5 8,-8 13,-10 5,-3 11,-4 18,-4 6,0 11,1 15,3 4,2 8,4 11,7 3,3 5,7 7,11 1,4 2,8 2,12 0,0 0,1 0,2 0,1 0,1 0,2 0,1 0,2 0,3 0,0 0,1 0,1l-54 0c0,11 3,19 7,25 4,6 11,8 20,8 4,0 6,0 9,0 2,-1 4,-2 6,-3 2,0 4,-1 6,-2 1,-1 3,-2 4,-3l2 0 0 7c-2,2 -4,3 -7,5 -2,2 -5,3 -8,5 -3,1 -6,2 -10,3 -3,1 -7,2 -11,2zm13 -54c0,-3 -1,-7 -1,-10 0,-3 -1,-6 -2,-8 -1,-2 -2,-4 -4,-5 -2,-2 -4,-2 -7,-2 -2,0 -5,0 -7,1 -2,2 -3,3 -5,6 -1,2 -2,4 -3,8 -1,3 -1,6 -1,10l30 0zm24 87l8 -3c2,0 3,-1 3,-2 1,-1 1,-2 1,-3l0 -93c0,-1 0,-2 -1,-3 -1,-1 -2,-2 -4,-3l-7 -2 0 -5 35 -6 0 13 0 0c2,-3 5,-6 7,-8 3,-2 5,-3 8,-4 2,-1 4,-2 6,-2 2,0 4,0 5,0 6,0 10,1 14,3 4,2 7,5 10,9 3,3 5,7 6,12 2,5 3,11 3,16 0,7 -1,13 -3,19 -2,5 -4,10 -8,14 -3,5 -7,8 -12,10 -4,3 -10,4 -16,4 -2,0 -5,0 -6,-1 -2,0 -4,-1 -6,-1 -1,-1 -3,-2 -4,-3 -2,-1 -3,-2 -4,-3l0 3 0 31c0,1 1,3 1,3 1,1 2,2 3,2l11 3 0 5 -50 0 0 -5zm50 -44c3,0 6,-1 9,-3 2,-1 4,-4 6,-6 1,-3 3,-6 3,-10 1,-4 1,-7 1,-12 0,-4 0,-9 -1,-13 0,-4 -1,-7 -3,-10 -2,-3 -4,-5 -6,-7 -3,-1 -6,-2 -9,-2 -1,0 -2,0 -4,0 -1,0 -2,1 -4,1 -1,0 -2,1 -4,2 -1,1 -2,2 -3,4l0 52c1,0 2,1 3,1 1,1 3,1 4,2 1,0 3,0 4,0 1,0 3,1 4,1zm62 3l9 -2c1,-1 2,-1 3,-2 0,-1 1,-2 1,-3l0 -62 -11 0c-2,0 -3,0 -4,1 -1,1 -2,2 -3,3l-5 14 -7 0 0 -27 83 0 0 27 -7 0 -6 -14c0,-1 -1,-2 -2,-3 -1,-1 -2,-1 -4,-1l-11 0 0 62c0,1 0,2 1,3 1,1 2,1 3,2l8 2 0 5 -48 1 0 -6zm67 0l8 -2c2,-1 2,-1 3,-2 1,-1 1,-2 1,-3l0 -58c0,-1 0,-2 -1,-3 -1,-1 -1,-2 -3,-2l-8 -3 0 -5 45 0 0 5 -6 3c-1,1 -2,1 -3,2 -1,1 -1,2 -1,3l0 39 0 8 0 2 34 -55 0 -7 35 0 0 5 -9 3c-1,0 -2,1 -3,2 0,1 -1,2 -1,3l0 58c0,1 1,2 1,3 1,1 2,1 3,2l9 2 0 5 -46 0 0 -5 7 -2c1,-1 2,-1 2,-2 1,-1 2,-2 2,-3l0 -39 0 -7 0 -3 -34 55 0 6 -35 0 0 -5zm137 41l11 -3c2,0 2,-1 3,-2 1,-1 1,-2 1,-3l0 -26c-4,0 -8,-1 -12,-2 -3,-1 -7,-2 -10,-4 -4,-2 -7,-4 -10,-6 -3,-3 -5,-6 -7,-9 -2,-3 -4,-6 -5,-10 -1,-4 -2,-8 -2,-12 0,-8 2,-14 4,-19 3,-6 6,-10 10,-14 4,-3 9,-6 15,-8 5,-1 11,-2 17,-3l0 -24c0,-1 0,-2 -1,-4 -1,-1 -2,-1 -4,-2l-8 -3 0 -4 36 -7 0 44c6,1 12,2 17,3 6,2 10,4 15,8 4,3 7,8 10,13 2,6 4,12 4,20 0,6 -2,12 -4,17 -3,5 -6,10 -10,14 -5,3 -9,6 -15,9 -6,2 -11,3 -17,3l0 26c0,1 0,2 1,3 1,1 1,2 3,2l11 3 0 5 -53 0 0 -5zm38 -42c3,-1 6,-2 9,-4 2,-2 5,-4 6,-7 2,-3 3,-7 4,-11 1,-4 2,-8 2,-13 0,-6 -1,-11 -2,-15 -1,-4 -2,-8 -4,-11 -2,-3 -4,-5 -6,-6 -3,-2 -6,-3 -9,-3l0 70zm-23 -70c-3,0 -6,1 -9,3 -3,1 -5,3 -6,6 -2,3 -3,7 -4,11 -1,4 -2,9 -2,15 0,4 1,9 2,13 1,4 2,8 4,11 1,3 4,5 6,7 3,2 6,3 9,4l0 -70zm71 71l9 -2c1,-1 2,-1 3,-2 0,-1 1,-2 1,-3l0 -58c0,-1 -1,-2 -2,-3 0,-1 -1,-2 -2,-2l-9 -3 0 -5 46 0 0 5 -7 3c-1,0 -2,1 -2,2 -1,1 -2,2 -2,3l0 39 0 8 0 2 34 -55 0 -7 35 0 0 5 -8 3c-2,0 -2,1 -3,2 -1,1 -1,2 -1,3l0 58c0,1 0,2 1,3 1,1 1,1 3,1l8 3 0 5 -45 0 0 -5 6 -3c1,0 2,-1 3,-1 1,-1 1,-2 1,-3l0 -39 0 -7 0 -3 -34 55 0 6 -35 0 0 -5zm179 6c-1,0 -3,0 -4,0 -1,0 -3,-1 -3,-1 -1,-1 -2,-2 -3,-3 -1,-1 -2,-2 -3,-4l-14 -28 -10 -3 0 26c0,1 0,2 1,3 1,0 2,1 3,1l6 3 0 5 -45 0 0 -5 8 -3c1,0 2,0 3,-1 1,-1 1,-2 1,-3l0 -58c0,-1 -1,-2 -1,-3 -1,-1 -2,-2 -3,-2l-8 -3 0 -5 45 0 0 5 -6 3c-2,0 -2,1 -3,2 -1,0 -1,1 -1,3l0 25 4 0c2,0 4,0 6,0 2,-1 4,-2 5,-4 2,-1 3,-3 4,-6 1,-3 2,-5 3,-8 1,-3 2,-5 3,-8 1,-2 2,-4 4,-6 1,-1 2,-2 3,-3 1,-1 3,-2 4,-3 1,0 3,-1 4,-1 1,0 3,0 4,0 2,0 3,0 6,0 2,0 4,0 5,1l-4 19 -1 0c-1,0 -2,-1 -3,-1 -1,0 -2,0 -3,0 0,-1 -1,-1 -2,-1 -1,0 -1,0 -2,0 -2,0 -4,0 -5,1 -1,1 -2,2 -3,4 -1,1 -2,3 -3,4 -1,2 -2,4 -4,5l23 41c1,1 1,2 3,3 1,0 2,1 3,1l6 2 0 5 -23 1zm41 1c-3,0 -7,-1 -9,-2 -3,-1 -5,-3 -7,-5 -2,-2 -4,-4 -5,-7 -1,-3 -2,-6 -2,-9 0,-3 1,-6 2,-9 1,-3 3,-5 5,-7 2,-3 4,-4 7,-6 3,-1 6,-3 8,-4 3,-1 6,-1 9,-2 3,0 6,0 8,0 1,0 2,0 2,0 1,0 2,0 3,0 1,0 2,0 3,0 1,0 2,0 3,0l0 -12c0,-3 0,-5 -1,-7 0,-2 -1,-3 -1,-4 -1,-1 -2,-2 -4,-2 -1,-1 -3,-1 -5,-1 -2,0 -4,1 -7,2 -2,1 -5,2 -7,3 -3,2 -5,3 -7,5 -2,1 -4,3 -6,4l-3 0 -3 -17c2,-1 4,-2 6,-2 3,-1 5,-2 8,-3 3,-1 6,-1 9,-2 3,0 6,0 9,0 4,0 8,0 13,1 4,1 7,2 11,5 3,2 6,4 8,8 2,3 3,8 3,13l-1 42c0,1 0,2 1,3 0,0 0,1 1,1 1,1 1,1 2,2 1,0 2,0 3,0 1,0 2,0 3,0 2,-1 3,-1 4,-1l2 0 0 6c-1,0 -2,1 -4,2 -1,1 -3,2 -5,2 -2,1 -4,2 -6,2 -2,1 -4,1 -6,1 -3,0 -5,0 -7,-1 -2,0 -4,-1 -6,-2 -1,-1 -2,-3 -3,-4 -1,-2 -2,-4 -2,-7l0 0c-2,3 -4,6 -6,8 -3,1 -5,3 -7,4 -3,1 -5,1 -7,2 -2,0 -4,0 -6,0zm13 -13c1,0 2,0 4,0 1,0 2,-1 3,-1 1,-1 3,-2 4,-3 1,0 2,-2 3,-3l0 -24c-4,0 -8,0 -11,1 -3,0 -6,1 -8,3 -2,1 -4,3 -5,5 -1,2 -2,5 -2,8 0,3 1,5 1,7 1,2 2,3 3,4 1,1 2,2 4,2 1,1 3,1 4,1zm134 14c-1,-1 -1,-2 -2,-2 -1,-1 -1,-1 -2,-1l-82 0 0 -5 9 -3c1,0 2,-1 2,-1 1,-1 1,-2 1,-4l0 -57c0,-2 0,-3 -1,-3 -1,-1 -1,-2 -2,-2l-9 -3 0 -5 45 0 0 5 -6 3c-1,0 -2,1 -3,2 0,0 -1,1 -1,3l0 61 30 0 -1 -61c0,-2 0,-3 -1,-3 0,-1 -1,-2 -2,-2l-7 -3 0 -5 46 0 0 5 -9 3c-1,0 -2,1 -2,2 -1,0 -2,1 -2,3l1 61 15 0 0 36 -8 0 -9 -24zm18 -8l9 -3c1,0 2,-1 2,-1 1,-1 1,-2 1,-4l0 -57c0,-2 0,-3 -1,-3 0,-1 -1,-2 -2,-2l-9 -3 0 -5 46 0 0 5 -7 3c-1,0 -2,1 -3,2 0,0 -1,1 -1,3l0 39 0 8 0 2 34 -56 0 -6 35 0 0 5 -9 3c-1,0 -2,1 -2,1 -1,1 -2,2 -2,4l1 57c0,2 0,3 1,4 0,0 1,1 2,1l9 3 0 5 -46 0 0 -5 7 -3c1,0 2,-1 3,-2 0,0 1,-1 1,-3l0 -38 0 -8 0 -2 -34 55 0 6 -35 0 0 -5zm149 7c-7,0 -13,-1 -18,-3 -5,-2 -10,-5 -13,-9 -4,-3 -7,-8 -9,-13 -2,-6 -3,-12 -3,-18 0,-6 1,-12 3,-18 2,-5 5,-10 9,-14 3,-4 8,-7 13,-9 6,-2 12,-3 19,-3 7,0 13,1 19,3 5,3 9,6 13,10 3,4 6,9 7,14 2,5 3,11 3,16 0,6 -1,12 -3,17 -2,6 -5,10 -8,14 -4,4 -9,8 -14,10 -5,2 -12,3 -18,3zm1 -8c3,0 6,-1 9,-4 2,-2 4,-4 5,-8 1,-3 2,-7 2,-11 1,-4 1,-8 1,-11 0,-5 0,-9 -1,-13 0,-5 -1,-9 -3,-12 -1,-4 -3,-6 -6,-9 -2,-2 -5,-3 -9,-3 -3,0 -6,1 -8,3 -3,2 -4,5 -6,9 -1,3 -2,6 -2,10 -1,4 -1,8 -1,12 0,4 0,8 1,12 0,5 1,9 3,12 1,4 3,7 5,9 3,3 6,4 10,4zm44 1l9 -3c1,0 2,-1 3,-2 0,0 1,-1 1,-3l0 -57c0,-2 -1,-3 -1,-4 -1,0 -2,-1 -3,-1l-9 -3 0 -5 46 0 0 5 -7 3c-1,0 -2,1 -2,1 -1,1 -2,2 -2,4l0 23 32 0 0 -24c0,-1 -1,-2 -1,-3 -1,0 -2,-1 -3,-1l-7 -3 0 -5 46 0 0 5 -9 3c-1,0 -2,1 -2,1 -1,1 -1,2 -1,4l0 57c0,2 0,3 1,3 0,1 1,2 2,2l9 3 0 5 -46 0 0 -5 7 -3c1,0 2,-1 3,-2 0,0 1,-1 1,-3l0 -26 -32 0 0 26c0,2 1,3 2,3 0,1 1,2 2,2l7 3 0 5 -46 0 0 -5zm104 0l9 -3c1,0 2,-1 3,-2 0,0 1,-1 1,-3l0 -58c0,-1 -1,-2 -1,-3 -1,0 -2,-1 -3,-1l-9 -3 0 -5 46 0 0 5 -7 3c-1,0 -2,1 -2,1 -1,1 -1,2 -1,3l0 23 31 0 0 -23c0,-1 0,-2 -1,-3 -1,0 -2,-1 -3,-1l-7 -3 0 -5 46 0 0 5 -8 3c-2,0 -2,0 -3,1 -1,1 -1,2 -1,3l0 58c0,1 0,3 1,3 1,1 1,2 3,2l8 3 0 5 -45 0 0 -5 6 -3c1,0 2,-1 3,-2 1,0 1,-1 1,-3l0 -26 -31 0 0 26c0,2 0,3 1,3 0,1 1,2 2,2l7 3 0 5 -46 0 0 -5zm186 0l6 -3c1,0 2,-1 3,-2 1,-1 1,-2 1,-3l0 -58c0,-1 0,-2 -1,-3 -1,-1 -2,-1 -3,-2l-8 -2 0 -5 47 0 0 5 -8 2c-1,1 -2,1 -3,2 -1,1 -1,2 -1,3l0 58c0,1 0,2 1,3 1,1 2,2 3,2l8 3 0 5 -45 0 0 -5zm-81 0l8 -3c1,0 2,-1 3,-2 1,0 1,-2 1,-3l0 -58c0,-1 0,-2 -1,-3 -1,-1 -2,-1 -3,-1l-8 -3 0 -5 47 0 0 5 -8 3c-2,0 -3,1 -3,1 -1,1 -1,2 -1,3l0 20 12 0c5,0 9,0 13,1 4,1 7,2 10,4 3,2 6,4 8,7 1,4 2,8 2,12 0,5 -1,9 -3,13 -1,3 -4,6 -7,8 -3,2 -7,4 -11,4 -4,1 -8,2 -12,2l-47 0 0 -5zm42 -4c2,0 4,0 6,-1 2,-1 4,-2 5,-4 1,-1 2,-3 3,-5 0,-2 0,-5 0,-7 0,-6 -1,-10 -3,-12 -3,-3 -6,-5 -11,-5l-7 0 0 34 7 0zm141 -92c-6,0 -10,-1 -13,-2 -4,-1 -7,-3 -9,-4 -2,-2 -4,-4 -5,-6 -1,-2 -2,-4 -2,-5l0 -8 17 0 0 4 0 9c1,1 1,1 2,2 1,0 2,1 3,1 1,0 2,0 3,1 1,0 3,0 3,0 1,0 3,0 4,0 1,-1 2,-1 3,-1 1,0 2,-1 3,-1 1,-1 1,-1 2,-2l0 -9 0 -4 17 0 0 8c0,1 -1,3 -2,5 -1,2 -2,4 -5,6 -2,1 -5,3 -9,4 -3,1 -7,2 -12,2zm-54 96l8 -3c1,0 2,-1 3,-2 1,-1 1,-2 1,-3l0 -58c0,-1 0,-2 -1,-3 -1,-1 -2,-1 -3,-2l-8 -2 0 -5 45 0 0 5 -6 2c-1,1 -2,2 -3,2 -1,1 -1,2 -1,3l0 39 0 8 0 2 34 -55 0 -6 35 0 0 5 -9 2c-1,1 -2,1 -3,2 0,1 -1,2 -1,3l0 58c0,1 1,2 1,3 1,1 2,2 3,2l9 3 0 5 -46 0 0 -5 7 -3c1,0 2,-1 2,-2 1,-1 1,-2 1,-3l0 -39 1 -7 0 -3 -34 56 0 6 -35 0 0 -5zm264 8c0,-1 -1,-2 -1,-2 -1,-1 -1,-1 -2,-1l-106 0 0 -6 11 -3c1,0 2,-1 3,-1 0,-1 1,-2 1,-4l0 -91c0,-1 -1,-2 -1,-3 -1,-1 -2,-2 -3,-2l-11 -3 0 -5 54 0 0 5 -11 3c-1,0 -2,1 -3,2 -1,1 -1,2 -1,3l0 95 46 0 0 -95c0,-1 0,-2 -1,-3 -1,-1 -2,-2 -3,-2l-11 -3 0 -5 54 0 0 5 -11 3c-1,0 -2,1 -2,2 -1,1 -2,2 -2,3l0 95 17 0 0 40 -8 0 -9 -27zm60 -1c-7,0 -12,-1 -17,-3 -6,-2 -10,-5 -14,-8 -3,-4 -6,-9 -8,-14 -2,-5 -3,-12 -3,-19 0,-5 1,-11 3,-16 2,-6 4,-10 8,-14 4,-4 8,-8 13,-10 6,-3 12,-4 18,-4 6,0 11,1 15,3 5,2 9,4 11,7 3,3 6,7 7,11 2,4 3,8 3,12 0,0 0,1 -1,2 0,1 0,1 0,2 0,1 0,2 0,3 0,0 0,1 0,2l-53 0c0,10 2,18 6,24 5,6 12,8 21,8 3,0 6,0 8,0 3,-1 5,-2 7,-2 2,-1 4,-2 5,-3 2,-1 3,-2 4,-2l2 0 0 6c-1,2 -4,3 -6,5 -3,2 -6,3 -9,5 -3,1 -6,2 -10,3 -3,1 -7,2 -10,2zm12 -54c0,-3 0,-7 -1,-10 0,-3 -1,-6 -2,-8 -1,-2 -2,-4 -4,-5 -1,-2 -4,-2 -6,-2 -3,0 -5,0 -7,1 -2,2 -4,3 -5,6 -2,2 -3,4 -3,8 -1,3 -2,6 -2,10l30 0zm26 47l8 -3c1,-1 2,-1 3,-2 1,-1 1,-2 1,-3l0 -58c0,-1 0,-2 -1,-3 -1,-1 -2,-1 -3,-2l-8 -2 0 -6 45 0 0 5 -6 3c-1,1 -2,1 -3,2 -1,1 -1,2 -1,3l0 23 31 0 0 -23c0,-1 0,-2 -1,-3 -1,-1 -1,-1 -3,-2l-6 -3 0 -5 45 0 0 5 -8 3c-1,1 -2,1 -3,2 0,1 -1,2 -1,3l0 58c0,1 1,2 1,3 1,1 2,1 3,2l9 3 0 5 -46 0 0 -5 6 -3c2,-1 3,-1 3,-2 1,-1 1,-2 1,-3l0 -27 -31 0 0 27c0,1 0,2 1,3 1,1 2,1 3,2l6 3 0 5 -45 0 0 -5zm120 0l9 -3c1,-1 2,-1 3,-2 0,-1 1,-2 1,-3l0 -62 -11 0c-2,0 -4,0 -5,1 -1,1 -1,2 -2,3l-5 14 -7 0 0 -27 83 0 0 27 -7 0 -6 -14c0,-1 -1,-2 -2,-3 -1,-1 -3,-1 -5,-1l-10 0 0 62c0,1 0,2 1,3 0,1 1,1 2,2l9 2 0 6 -48 0 0 -5z"/>
   <path class="fil4" d="M3074 564l9 -3c1,0 2,-1 3,-2 0,-1 1,-2 1,-3l0 -93c0,-1 -1,-2 -1,-3 -1,-1 -3,-2 -5,-3l-7 -2 0 -5 35 -6 0 13 0 0c3,-3 5,-6 8,-8 2,-2 5,-3 7,-4 2,-1 5,-2 7,-2 2,0 3,0 5,0 5,0 9,1 13,3 4,2 8,5 10,8 3,4 5,8 7,13 1,5 2,11 2,16 0,7 -1,13 -3,19 -1,5 -4,10 -7,14 -4,5 -8,8 -12,10 -5,3 -11,4 -17,4 -2,0 -4,0 -6,-1 -2,0 -4,-1 -6,-2 -1,0 -3,-1 -4,-2 -1,-1 -2,-2 -3,-3l0 3 0 31c0,1 0,3 1,3 0,1 1,2 3,2l10 3 0 5 -50 0 0 -5zm50 -45c3,0 6,0 9,-2 2,-2 4,-4 6,-6 2,-3 3,-6 4,-10 0,-4 1,-8 1,-12 0,-4 -1,-9 -1,-13 -1,-4 -2,-7 -4,-10 -1,-3 -3,-5 -6,-7 -2,-1 -5,-2 -9,-2 -1,0 -2,0 -3,0 -2,0 -3,1 -4,1 -2,0 -3,1 -4,2 -2,1 -3,2 -3,4l0 52c0,0 1,1 2,1 2,1 3,1 4,1 2,1 3,1 4,1 2,0 3,0 4,0z"/>
   <path class="fil4" d="M1052 730l11 -3c1,0 2,0 2,-1 1,-1 1,-2 1,-3l0 -83 -22 0c-1,0 -1,1 -2,1 0,1 -1,1 -1,2l-6 17 -5 0 0 -28 94 0 0 27 -5 0 -7 -16c0,-1 0,-1 -1,-2 0,0 -1,-1 -2,-1l-22 0 0 83c0,1 1,2 1,3 1,1 2,1 3,1l11 3 0 5 -50 0 0 -5zm92 6c-3,0 -6,0 -8,-2 -2,-1 -4,-2 -6,-4 -2,-2 -3,-4 -4,-6 -1,-2 -2,-5 -2,-8 0,-3 1,-5 2,-8 1,-2 2,-4 4,-6 2,-2 4,-3 6,-5 3,-1 5,-2 8,-3 2,-1 5,-1 7,-2 3,0 5,0 7,0 1,0 1,0 2,0 1,0 2,0 3,0 1,0 1,0 2,0 1,0 2,0 2,0l0 -11c0,-2 0,-4 0,-6 0,-1 -1,-2 -2,-3 0,-1 -1,-2 -2,-2 -2,0 -3,0 -5,0 -2,0 -4,0 -6,1 -2,1 -4,2 -6,3 -3,1 -5,3 -6,4 -2,1 -4,3 -5,3l-3 0 -3 -14c2,-1 4,-2 6,-2 2,-1 4,-2 6,-2 3,-1 5,-2 8,-2 3,0 5,0 8,0 4,0 7,0 11,1 3,0 7,2 10,4 2,1 5,4 6,7 2,3 3,7 3,11l0 37c0,1 0,1 0,2 0,0 1,1 1,1 1,1 1,1 2,1 1,1 2,1 3,1 0,0 1,0 2,-1 2,0 3,0 4,0l1 0 0 5c0,0 -1,1 -3,2 -1,0 -3,1 -4,2 -2,0 -4,1 -6,1 -1,1 -3,1 -5,1 -2,0 -4,0 -6,0 -2,-1 -3,-2 -5,-2 -1,-1 -2,-3 -3,-4 -1,-2 -1,-4 -1,-6l0 0c-2,3 -4,5 -6,7 -2,1 -4,2 -6,3 -2,1 -4,2 -6,2 -2,0 -4,0 -5,0zm11 -11c1,0 2,0 3,0 2,-1 3,-1 4,-1 1,-1 2,-1 3,-2 0,-1 1,-2 2,-3l0 -21c-3,0 -6,0 -9,1 -3,0 -5,1 -7,2 -2,2 -3,3 -4,5 -1,2 -2,4 -2,7 0,2 0,4 1,6 1,1 1,2 2,3 1,1 2,2 4,2 1,1 2,1 3,1zm52 5l8 -2c1,0 1,-1 2,-2 1,0 1,-1 1,-2l0 -50c0,-2 0,-2 -1,-3 -1,-1 -2,-1 -2,-2l-8 -2 0 -4 37 -1 14 40 1 2 0 2 16 -44 35 0 0 5 -7 2c-1,1 -2,1 -2,2 -1,0 -1,1 -1,2l0 51c0,1 0,2 1,2 0,1 1,1 2,2l7 2 0 5 -39 0 0 -5 5 -2c1,-1 2,-1 3,-2 1,0 1,-1 1,-2l0 -54 -1 2 -1 2 -18 50 -5 11 -5 0 -23 -62 -1 -1 0 -2 0 54c0,1 0,2 1,2 0,1 1,1 2,2l6 2 0 5 -28 0 0 -5zm152 7c-5,0 -10,-1 -15,-3 -4,-2 -8,-4 -11,-8 -4,-3 -6,-7 -8,-12 -1,-4 -2,-10 -2,-15 0,-6 1,-11 2,-15 2,-5 4,-9 8,-12 3,-4 7,-7 11,-9 5,-2 10,-3 16,-3 7,0 12,1 17,4 4,2 8,4 11,8 3,3 5,8 7,12 1,5 2,9 2,14 0,6 -1,10 -3,15 -1,5 -4,9 -7,12 -3,4 -7,6 -12,9 -4,2 -10,3 -16,3zm1 -8c4,0 6,-1 8,-3 2,-2 4,-4 5,-7 1,-3 2,-6 2,-9 0,-4 0,-7 0,-10 0,-4 0,-8 0,-12 -1,-4 -2,-7 -3,-10 -1,-3 -3,-5 -5,-7 -2,-2 -5,-3 -8,-3 -3,0 -5,1 -7,3 -2,1 -4,4 -5,7 -1,3 -2,6 -2,9 -1,4 -1,7 -1,10 0,3 0,7 1,11 0,4 1,7 2,10 2,3 3,6 5,8 2,2 5,3 8,3zm43 5l0 -4 5 -2c1,0 2,0 3,-1 1,-1 2,-1 3,-2l19 -36c-2,-1 -3,-2 -3,-4 -1,-1 -2,-3 -3,-4 0,-1 -1,-2 -2,-3 -1,-1 -3,-1 -5,-1 0,0 -1,0 -1,0 -1,0 -2,0 -2,1 -1,0 -2,0 -3,0 -1,0 -1,0 -2,1l-1 0 -4 -17c2,0 3,0 5,-1 2,0 4,0 5,0 3,0 5,1 7,2 2,1 4,2 6,5 1,1 2,3 3,5 1,2 2,4 3,7 0,2 1,4 2,7 1,2 2,4 4,5 1,1 2,2 4,3 1,0 3,1 5,1l4 0 0 -23c0,-1 -1,-2 -1,-2 -1,-1 -2,-1 -3,-2l-5 -2 0 -5 37 0 0 5 -5 2c-1,1 -2,1 -3,2 0,0 -1,1 -1,2l0 23 4 0c2,0 3,-1 5,-1 2,-1 3,-2 4,-3 2,-1 3,-3 4,-5 1,-3 2,-5 2,-7 1,-3 2,-5 3,-7 1,-2 2,-4 3,-5 1,-1 2,-3 3,-3 1,-1 2,-2 3,-3 1,0 2,0 3,-1 1,0 3,0 4,0 1,0 3,0 5,0 2,0 3,1 5,1l-4 17 -1 0c-1,-1 -2,-1 -2,-1 -1,0 -2,0 -3,0 0,-1 -1,-1 -2,-1 -1,0 -1,0 -2,0 -1,0 -3,0 -4,1 -1,1 -2,2 -2,3 -1,1 -2,3 -3,4 0,1 -1,3 -3,4l19 36c1,1 2,1 3,2 1,1 2,1 3,1l5 2 0 4 -19 1c-2,0 -3,0 -4,0 -1,0 -2,0 -3,-1 -1,0 -2,-1 -3,-2 0,-1 -1,-2 -2,-4l-12 -25 -9 -1 0 21c0,2 1,2 1,3 1,1 2,1 3,2l5 2 0 4 -37 0 0 -4 5 -2c1,-1 2,-1 3,-2 0,-1 1,-1 1,-3l0 -21 -10 1 -12 25c-1,2 -2,3 -2,4 -1,1 -2,2 -3,2 -1,1 -2,1 -3,1 -1,0 -2,0 -3,0l-19 -1zm166 2c-5,0 -10,-1 -15,-2 -4,-2 -8,-4 -11,-8 -3,-3 -6,-7 -7,-11 -2,-5 -3,-10 -3,-16 0,-5 1,-10 2,-15 2,-4 4,-9 8,-12 3,-4 7,-6 11,-9 5,-2 10,-3 16,-3 5,0 9,1 13,3 4,1 7,4 9,6 3,3 5,6 6,9 2,4 2,7 2,10 0,1 0,2 0,2 0,1 0,2 0,2 0,1 0,2 0,3 0,0 0,1 0,1l-46 0c0,9 2,17 5,21 4,5 10,8 18,8 3,0 5,-1 7,-1 2,-1 4,-1 6,-2 2,-1 3,-1 5,-2 1,-1 2,-2 3,-2l2 0 0 6c-1,1 -3,2 -6,4 -2,1 -4,3 -7,4 -3,1 -5,2 -9,3 -3,1 -6,1 -9,1zm11 -46c0,-3 0,-6 -1,-9 0,-3 -1,-5 -1,-7 -1,-2 -2,-3 -4,-5 -1,-1 -3,-1 -6,-1 -2,0 -4,0 -6,1 -1,1 -3,3 -4,5 -1,2 -2,4 -3,7 0,2 -1,5 -1,9l26 0zm33 40l7 -2c1,-1 2,-1 2,-2 1,-1 1,-2 1,-3l0 -50c0,-1 0,-2 -1,-2 0,-1 -1,-2 -2,-2l-7 -2 0 -5 39 0 0 5 -6 2c-1,0 -1,1 -2,2 -1,0 -1,1 -1,2l0 20 27 0 0 -20c0,-1 0,-2 -1,-2 0,-1 -1,-2 -2,-2l-6 -2 0 -5 40 0 0 5 -8 2c-1,0 -1,1 -2,2 -1,0 -1,1 -1,2l0 50c0,1 0,2 1,3 1,1 1,1 2,2l8 2 0 4 -40 0 0 -4 6 -2c1,-1 2,-1 2,-2 1,-1 1,-2 1,-3l0 -23 -27 0 0 23c0,1 0,2 1,3 1,1 2,1 2,2l6 2 0 4 -39 0 0 -4zm100 0l8 -2c0,-1 1,-1 2,-2 1,-1 1,-2 1,-3l0 -50c0,-1 0,-2 -1,-2 -1,-1 -2,-2 -2,-2l-8 -2 0 -5 40 0 0 5 -6 2c-1,0 -2,1 -2,2 -1,0 -1,1 -1,2l0 20 27 0 0 -20c0,-1 -1,-2 -1,-2 -1,-1 -2,-2 -3,-2l-5 -2 0 -5 39 0 0 5 -7 2c-1,0 -2,1 -3,1 0,1 0,2 0,3l0 50c0,1 0,2 1,3 0,1 1,1 2,1l7 3 0 4 -39 0 0 -4 5 -2c1,-1 2,-1 3,-2 0,-1 1,-2 1,-3l0 -23 -27 0 0 23c0,1 0,2 1,3 0,1 1,1 2,2l6 2 0 4 -40 0 0 -4zm137 6c-5,0 -11,-1 -15,-2 -5,-2 -8,-5 -11,-8 -4,-3 -6,-7 -8,-12 -1,-5 -2,-10 -2,-16 0,-5 1,-10 2,-15 2,-4 4,-8 7,-12 4,-3 8,-6 12,-8 5,-2 10,-3 16,-3 7,0 12,1 17,3 4,2 8,5 11,9 3,3 5,7 7,12 1,4 2,9 2,14 0,5 -1,10 -3,15 -1,4 -4,9 -7,12 -3,3 -7,6 -12,8 -4,2 -10,3 -16,3zm1 -7c3,0 6,-1 8,-3 2,-2 4,-4 5,-7 1,-3 1,-6 2,-10 0,-3 0,-6 0,-10 0,-3 0,-7 0,-11 -1,-4 -2,-7 -3,-10 -1,-3 -3,-6 -5,-8 -2,-1 -5,-2 -8,-2 -3,0 -5,1 -7,2 -2,2 -4,5 -5,7 -1,3 -2,6 -2,10 -1,3 -1,7 -1,10 0,3 0,7 1,11 0,3 1,7 2,10 1,3 3,6 5,8 2,2 5,3 8,3zm49 1l8 -3c1,0 1,0 2,-1 1,-1 1,-2 1,-3l0 -50c0,-1 0,-2 -1,-3 -1,0 -1,-1 -2,-1l-8 -3 0 -4 63 0 0 25 -6 0 -5 -14c-1,-1 -1,-2 -2,-2 -1,-1 -2,-1 -4,-1l-15 0 0 53c0,1 0,2 1,3 0,1 1,1 2,1l8 3 0 4 -42 0 0 -4zm111 6c-6,0 -11,-1 -15,-3 -5,-1 -9,-4 -12,-7 -3,-3 -5,-7 -7,-12 -2,-5 -3,-10 -3,-16 0,-5 1,-10 3,-15 1,-4 4,-8 7,-12 3,-3 7,-6 12,-8 4,-2 10,-3 16,-3 6,0 12,1 16,3 5,2 9,5 12,9 3,3 5,7 6,12 2,4 2,9 2,14 0,5 0,10 -2,15 -2,4 -4,8 -7,12 -3,3 -7,6 -12,8 -5,2 -10,3 -16,3zm1 -7c3,0 6,-1 8,-3 2,-2 3,-4 4,-7 1,-3 2,-6 2,-10 1,-3 1,-7 1,-10 0,-3 0,-7 -1,-11 0,-4 -1,-7 -2,-10 -2,-3 -3,-6 -5,-8 -2,-2 -5,-3 -8,-3 -3,1 -6,1 -8,3 -2,2 -3,5 -4,7 -1,3 -2,6 -3,10 0,3 0,7 0,10 0,3 0,7 0,10 1,4 2,8 3,11 1,3 3,6 5,8 2,2 5,3 8,3zm130 7c-7,0 -14,-1 -20,-3 -6,-3 -11,-6 -15,-11 -5,-5 -8,-10 -10,-17 -3,-6 -4,-14 -4,-22 0,-5 1,-10 2,-15 1,-5 3,-9 5,-13 2,-4 4,-7 7,-11 3,-3 7,-5 10,-8 4,-2 8,-4 12,-5 4,-1 9,-1 13,-1 3,0 6,0 9,0 3,0 6,1 9,1 3,1 6,2 9,2 3,1 5,2 7,2l0 25 -5 0 -6 -13c0,0 -1,-1 -1,-2 -1,0 -1,0 -2,-1 -3,-2 -6,-3 -9,-4 -4,-1 -7,-1 -11,-1 -4,0 -7,1 -10,2 -4,2 -6,5 -9,9 -2,3 -4,8 -5,13 -1,5 -2,11 -2,18 0,7 1,13 2,18 2,6 4,11 7,14 2,4 6,7 10,9 4,2 9,3 15,3 3,0 6,-1 9,-2 3,0 5,-1 7,-3 3,-1 5,-2 6,-4 2,-1 3,-3 5,-4l3 0 0 8c-2,2 -4,4 -7,6 -3,2 -6,3 -9,5 -4,1 -7,3 -11,4 -3,1 -7,1 -11,1zm84 0c-5,0 -11,-1 -15,-3 -5,-1 -8,-4 -12,-7 -3,-4 -5,-8 -7,-12 -2,-5 -2,-10 -2,-16 0,-5 0,-10 2,-15 2,-4 4,-8 7,-12 4,-3 7,-6 12,-8 5,-2 10,-3 16,-3 6,0 12,1 17,3 4,2 8,5 11,8 3,4 5,8 7,13 1,4 2,9 2,14 0,5 -1,10 -3,15 -1,4 -4,8 -7,12 -3,3 -7,6 -12,8 -4,2 -10,3 -16,3zm1 -7c3,0 6,-1 8,-3 2,-2 3,-5 4,-7 2,-3 2,-6 3,-10 0,-3 0,-7 0,-10 0,-4 0,-7 -1,-11 0,-4 -1,-7 -2,-10 -1,-3 -3,-6 -5,-8 -2,-2 -5,-3 -8,-3 -3,0 -6,1 -8,3 -1,2 -3,4 -4,7 -1,3 -2,6 -2,10 -1,3 -1,6 -1,10 0,3 0,7 1,10 0,4 1,8 2,11 1,3 3,5 5,7 2,3 5,4 8,4zm128 7c-5,0 -10,-1 -14,-3 -5,-1 -8,-4 -12,-7 -3,-3 -5,-7 -7,-11 -1,-5 -2,-10 -2,-15l-13 0 0 23c0,1 0,2 1,3 0,0 1,1 2,1l6 3 0 4 -40 0 0 -4 7 -3c1,0 2,-1 3,-1 0,-1 1,-2 1,-3l0 -50c0,-1 -1,-2 -1,-3 -1,-1 -2,-1 -3,-1l-7 -3 0 -4 40 0 0 4 -6 3c-1,0 -2,1 -2,1 -1,1 -1,2 -1,3l0 20 13 0c0,-5 1,-9 3,-13 2,-4 4,-8 8,-11 3,-3 6,-5 11,-7 4,-1 9,-2 14,-2 7,0 12,1 17,3 4,2 8,5 11,8 3,4 5,8 7,13 1,4 2,9 2,14 0,5 -1,10 -3,15 -1,4 -4,8 -7,12 -3,3 -7,6 -12,8 -4,2 -10,3 -16,3zm1 -8c4,0 6,0 8,-2 2,-2 4,-5 5,-8 1,-2 1,-6 2,-9 0,-3 0,-7 0,-10 0,-4 0,-8 -1,-11 0,-4 -1,-8 -2,-11 -1,-3 -3,-5 -5,-7 -2,-2 -5,-3 -8,-3 -3,0 -5,1 -7,3 -2,2 -4,4 -5,7 -1,3 -1,6 -2,10 0,3 0,6 0,9 0,3 0,5 0,8 0,2 0,5 1,7 0,2 1,5 2,7 0,2 1,4 2,5 2,2 3,3 5,4 1,1 3,1 5,1zm77 8c-3,0 -7,0 -10,-1 -3,0 -5,-1 -8,-2 -2,0 -4,-1 -7,-2 -2,-1 -4,-2 -6,-3l2 -11 2 0c2,1 3,2 5,3 2,1 4,2 6,3 2,2 4,2 7,3 2,1 5,1 7,1 2,0 5,0 7,-1 2,-1 3,-2 5,-3 1,-1 2,-3 3,-5 0,-1 1,-3 1,-6 0,-1 -1,-3 -1,-4 -1,-2 -2,-3 -3,-4 -1,-1 -2,-2 -4,-2 -2,-1 -4,-1 -7,-1l-8 0 0 -10 7 0c4,0 8,-1 10,-3 2,-2 3,-5 3,-9 0,-2 0,-3 -1,-4 0,-2 -1,-3 -2,-4 0,-1 -2,-1 -3,-2 -1,0 -3,-1 -4,-1 -2,0 -4,1 -7,1 -2,1 -4,2 -6,3 -2,1 -3,2 -5,3 -2,2 -3,3 -4,4l-3 0 -2 -14c2,0 4,-1 6,-2 2,0 5,-1 7,-1 2,-1 5,-1 7,-2 3,0 6,0 9,0 4,0 8,0 11,1 4,1 7,2 10,3 2,2 5,4 6,6 2,2 3,5 3,7 0,2 -1,3 -1,5 -1,2 -2,4 -3,6 -2,1 -4,3 -6,4 -3,2 -6,3 -10,4l3 0c2,0 4,1 6,2 3,1 5,2 7,3 2,2 3,3 4,6 1,2 2,4 2,7 0,4 -1,7 -3,10 -2,2 -4,5 -8,7 -3,1 -7,3 -11,4 -4,0 -8,1 -13,1z"/>
   <path class="fil4" d="M2500 735c-3,0 -5,0 -8,-1 -2,-1 -4,-3 -6,-5 -1,-1 -3,-3 -4,-6 -1,-2 -1,-5 -1,-7 0,-3 1,-6 2,-8 1,-3 2,-5 4,-7 2,-2 4,-3 6,-5 2,-1 5,-2 7,-3 3,-1 5,-1 8,-2 2,0 4,0 7,0 0,0 1,0 2,0 0,0 1,0 2,0 1,0 2,0 3,0 0,0 1,0 2,0l0 -10c0,-3 0,-5 -1,-6 0,-2 0,-3 -1,-4 -1,-1 -2,-1 -3,-2 -1,0 -2,0 -4,0 -2,0 -4,0 -6,1 -3,1 -5,2 -7,3 -2,2 -4,3 -6,4 -2,2 -4,3 -5,4l-2 0 -3 -15c1,-1 3,-1 5,-2 2,-1 5,-2 7,-2 2,-1 5,-1 7,-2 3,0 6,0 9,0 3,0 7,0 10,1 4,1 7,2 10,4 3,2 5,4 7,7 2,3 3,7 3,11l-1 37c0,1 0,2 1,2 0,1 0,1 1,2 0,0 1,0 2,1 0,0 1,0 2,0 1,0 2,0 3,0 1,-1 2,-1 3,-1l2 0 0 5c-1,1 -2,1 -3,2 -2,1 -3,1 -5,2 -1,1 -3,1 -5,2 -2,0 -4,0 -5,0 -3,0 -5,0 -6,0 -2,-1 -4,-1 -5,-2 -2,-1 -3,-2 -3,-4 -1,-1 -2,-3 -2,-6l0 0c-1,3 -3,5 -5,7 -2,1 -4,3 -6,3 -3,1 -5,2 -6,2 -2,0 -4,0 -6,0zm12 -11c1,0 2,0 3,0 1,0 2,-1 3,-1 1,-1 2,-1 3,-2 1,-1 2,-2 2,-3l1 -21c-4,0 -7,0 -10,1 -2,0 -5,1 -6,3 -2,1 -4,2 -5,4 -1,2 -1,4 -1,7 0,2 0,4 0,6 1,1 2,3 3,4 1,1 2,1 3,2 1,0 3,0 4,0z"/>
   <rect class="fil1" transform="matrix(0.946157 -0.000530214 0.000530217 0.946151 826.556 166.693)" width="20.0079" height="640.004"/>
   <path class="fil5" d="M186 2516c0,0 85,-10 155,-40 70,-30 150,-85 150,-85 0,0 80,60 145,85 65,25 150,40 150,40 0,0 10,105 5,155 -5,50 -60,230 -60,230l65 45 5 25 -10 20 83 57 -68 43 0 80 -130 -80 25 -40 -50 -35 -95 80 -65 40 -90 -55 -75 -60 -45 30 20 40 -125 80 0 -75 -70 -45 80 -60 -15 -35 80 -55c0,0 -30,-70 -45,-125 -15,-55 -16,-95 -16,-95l-4 -165z"/>
   <path class="fil6" d="M885 3042l-80 -54 12 -24c3,-4 2,-9 -1,-13 -1,-1 -23,-26 -72,-51 17,-39 32,-81 42,-126 32,-137 21,-254 20,-259 0,-6 -5,-10 -10,-11 -93,-9 -169,-40 -217,-65 -51,-26 -81,-51 -81,-51 -5,-4 -11,-4 -15,0 -1,1 -119,98 -298,116 -6,1 -10,5 -11,11 0,2 -5,55 1,131 0,6 6,11 12,11 7,-1 12,-7 11,-13 -4,-56 -2,-99 -1,-117 93,-12 168,-43 216,-67 39,-20 65,-39 77,-48 12,9 39,28 78,48 47,24 123,55 216,67 2,30 6,130 -20,241 -12,48 -27,93 -47,133 0,1 -1,2 -1,3 -1,2 -3,5 -4,7 -1,1 -1,3 -2,4 -1,3 -3,5 -4,8 -1,2 -2,4 -3,6 -1,1 -2,3 -3,5 -1,2 -3,4 -4,5 0,2 -1,3 -2,4 -2,4 -5,8 -8,12 0,1 0,1 0,1 -1,2 -3,4 -4,6 -1,1 -1,2 -2,3 -8,12 -17,23 -26,34 0,0 0,0 0,0 -2,2 -3,4 -5,6 -2,2 -3,4 -4,5 -1,0 -1,1 -1,1 -2,2 -3,4 -5,5 0,1 0,1 0,1 -42,44 -91,78 -149,102 -56,-23 -119,-63 -172,-130 0,0 0,-1 0,-1 -1,-1 -3,-3 -4,-4 -19,-25 -36,-54 -51,-84 0,-1 -1,-1 -1,-2 -27,-56 -48,-124 -59,-207 -1,-7 -7,-11 -13,-10 -7,1 -11,6 -10,13 10,76 29,145 57,206 -50,25 -71,50 -72,51 -3,4 -4,9 -2,13l13 24 -80 54c-4,2 -6,6 -6,10 1,4 3,8 6,10l66 36 0 72c0,4 2,8 6,10 2,1 4,2 6,2 2,0 4,-1 6,-2l130 -77c0,0 0,0 0,0 0,0 0,0 0,0 1,0 1,0 1,-1 0,0 0,0 0,0 1,0 1,0 1,-1 0,0 0,0 0,0 1,0 1,0 1,-1 0,0 0,0 0,0 0,0 0,0 0,0 0,0 1,-1 1,-1 0,0 0,0 0,0 0,-1 1,-1 1,-1 0,-1 0,-1 0,-1 0,0 0,0 0,-1 0,0 0,0 0,0 0,-1 0,-1 0,-2 0,0 0,0 0,0 1,0 1,-1 1,-1 0,0 0,0 0,0 -1,-1 -1,-1 -1,-2 0,0 0,0 0,0 0,0 0,-1 0,-1 0,0 0,0 0,-1 0,0 0,0 -1,-1l-16 -33c10,-5 21,-10 34,-15 43,44 95,78 154,102 1,1 3,1 4,1 2,0 3,0 5,-1 59,-23 110,-58 153,-102 13,5 25,10 34,15l-16 33c0,1 0,1 0,1 0,1 0,1 0,1 -1,0 -1,1 -1,1 0,0 0,0 0,0 0,1 0,1 0,2 0,0 0,0 0,0 0,0 0,1 0,1 0,0 0,0 0,0 0,1 0,1 0,2 0,0 0,0 0,0 1,1 1,1 1,1 0,0 0,0 0,1 0,0 0,0 1,1 0,0 0,0 0,0 0,0 0,1 0,1 0,0 0,0 0,0 0,0 0,0 0,0 1,1 1,1 1,1 0,0 0,0 0,0 1,1 1,1 1,1 0,0 0,0 1,0 0,1 0,1 0,1 0,0 0,0 1,0 0,0 0,0 0,0l130 77c2,1 4,2 6,2 2,0 4,-1 6,-2 3,-2 6,-6 6,-10l0 -72 65 -36c4,-2 6,-6 6,-10 0,-4 -2,-8 -5,-10zm-700 108l0 -59c0,-5 -2,-8 -6,-11l-54 -30 62 -41 41 79c0,0 0,0 1,1 0,0 0,0 0,0 0,0 0,1 1,1 0,0 0,0 0,1 0,0 0,0 1,0 0,0 0,0 0,1 0,0 1,0 1,0 0,0 0,0 1,0 0,0 0,0 0,0 0,1 1,1 1,1 0,0 0,0 0,0 1,0 1,0 1,0 0,0 0,0 1,0 0,0 0,1 0,1l34 5 -85 51zm80 -75c0,0 0,-1 1,-1 0,0 1,-1 2,-1 0,0 0,-1 1,-1 0,-1 1,-1 2,-1 0,-1 1,-1 1,-1 1,-1 1,-1 2,-2 0,0 1,0 1,0 1,-1 2,-1 3,-2 0,0 0,0 0,0l5 12 -18 -3zm12 -36c0,0 0,0 0,0 0,0 0,0 0,0 0,0 0,0 0,0 0,1 0,1 0,1 -1,0 -1,0 -2,0 -1,1 -2,1 -2,2 -1,0 -2,0 -2,1 0,0 0,0 0,0 0,0 0,0 0,0 -2,1 -3,2 -5,3 0,0 0,0 0,0 -1,0 -2,1 -3,1 0,0 0,1 0,1 0,0 0,0 0,0 -9,5 -16,11 -21,15l-39 -73 -15 -29c9,-8 27,-24 59,-40 1,2 3,4 4,7 0,1 1,2 2,3 1,3 3,6 5,9 0,1 0,2 1,2 12,22 26,43 41,62 0,0 1,1 1,1 1,2 3,3 4,5 0,0 1,1 2,2 1,1 2,3 3,4 2,2 3,4 5,6 -15,5 -27,11 -38,17zm389 -17c0,0 0,0 0,0 1,-2 2,-3 3,-4 0,-1 1,-1 2,-2 1,-2 3,-4 4,-5 0,-1 0,-1 0,-1 8,-9 15,-18 21,-28 1,-1 2,-2 3,-3 1,-2 2,-4 3,-5 2,-2 3,-4 4,-5 1,-2 2,-3 3,-5 1,-2 3,-5 4,-7 1,-2 2,-4 3,-5 1,-2 3,-4 4,-6 1,-2 2,-5 4,-7 0,-1 1,-3 2,-4 1,-3 3,-6 5,-9 0,-1 1,-2 1,-3 1,-1 1,-2 2,-2 31,16 50,32 59,40l-54 102c-5,-4 -12,-10 -21,-15 0,0 0,0 0,0 -1,0 -1,-1 -1,-1 -1,0 -1,-1 -2,-1 0,0 -1,0 -1,-1 -1,0 -3,-1 -4,-2 0,0 0,0 0,0 0,0 0,0 0,0 -1,-1 -1,-1 -2,-1 -1,-1 -2,-1 -3,-2 0,0 -1,0 -1,0 0,0 0,0 0,-1 0,0 0,0 0,0 0,0 0,0 0,0 0,0 -1,0 -1,0 -10,-6 -23,-12 -37,-17zm35 49l2 -5c0,0 0,0 0,0 1,1 2,1 3,2 0,0 0,0 0,0 1,1 2,1 3,2 0,0 0,0 1,1 1,0 1,1 2,1 0,0 1,1 1,1 1,0 1,1 2,1 0,0 0,1 1,1l-19 3 4 -7zm100 9c-3,3 -6,6 -6,11l0 59 -85 -51 34 -5c0,0 1,0 1,0 0,-1 0,-1 1,-1 0,0 0,0 0,0 0,0 1,0 1,0 0,0 0,0 1,0 0,-1 0,-1 0,-1 0,0 1,0 1,0 0,0 0,-1 1,-1 0,0 0,0 0,0 0,0 0,0 1,-1 0,0 0,0 0,0 0,0 1,-1 1,-1 0,0 0,0 0,0 0,-1 1,-1 1,-2l41 -78 62 41 -55 30z"/>
   <path class="fil6" d="M734 2574c-1,-6 -5,-10 -11,-11 -135,-14 -224,-87 -225,-88 -5,-3 -11,-3 -15,0 -1,1 -91,74 -226,88 -5,1 -10,5 -10,11 0,2 -6,54 2,125 8,65 29,160 85,238 3,3 6,5 10,5 2,0 5,-1 7,-3 5,-3 6,-11 2,-16 -53,-74 -73,-164 -80,-226 -6,-52 -5,-94 -4,-111 116,-15 197,-69 221,-87 25,18 105,72 221,87 1,13 2,38 0,72 0,6 5,12 11,12 7,0 12,-5 12,-11 3,-50 0,-84 0,-85z"/>
   <path class="fil6" d="M720 2694c-6,-1 -12,4 -13,10 -26,206 -131,292 -217,327 -41,-17 -77,-42 -107,-73 -5,-4 -12,-5 -17,0 -5,4 -5,12 0,16 33,35 74,62 120,81 1,0 3,0 4,0 2,0 3,0 5,0 75,-30 134,-83 175,-156 31,-54 51,-119 60,-192 1,-6 -4,-12 -10,-13z"/>
   <path class="fil6" d="M621 2666c-16,-16 -42,-16 -58,0l-104 104 -38 -38c-16,-16 -42,-16 -58,0 -16,16 -16,42 0,58l67 67c8,8 18,12 29,12 11,0 21,-4 29,-12l133 -133c16,-16 16,-42 0,-58zm-16 41l-134 133c-3,4 -7,6 -12,6 -5,0 -9,-2 -13,-6l-66 -66c-7,-7 -7,-18 0,-25 3,-4 8,-5 12,-5 5,0 9,1 13,5l46 46c2,2 5,3 8,3 3,0 6,-1 8,-3l113 -113c7,-7 18,-7 25,0 7,7 7,18 0,25z"/>
   <path class="fil7 str0" d="M914 5140c-426,-225 -830,150 -685,565"/>
   <polyline class="fil7 str0" points="90,5606 229,5705 314,5550 "/>
   <path class="fil8" d="M791 4097l-276 -189c-9,-6 -31,-6 -33,18l0 377c2,24 25,24 33,17l276 -188c7,-4 17,-22 0,-35l0 0zm-267 166l0 -297 217 148 -217 149z"/>
   <path class="fil8" d="M590 3614c-275,0 -500,225 -500,500 0,276 225,500 500,500 276,0 500,-224 500,-500 0,-275 -224,-500 -500,-500zm0 958c-252,0 -457,-205 -457,-458 0,-252 205,-457 457,-457 253,0 458,205 458,457 0,253 -205,458 -458,458z"/>
   <path class="fil6" d="M94 6655l77 -77c-19,-23 -30,-53 -30,-86 0,-74 60,-134 134,-134 75,0 135,60 135,134 0,75 -60,135 -135,135 -32,0 -62,-11 -85,-30l-77 77c-5,5 -14,5 -19,0 -5,-6 -5,-14 0,-19zm181 -55c60,0 109,-48 109,-108 0,-59 -49,-108 -109,-108 -59,0 -108,49 -108,108 0,60 49,108 108,108z"/>
   <path class="fil9" d="M843 6485c-23,14 -39,31 -46,39l-17 -13c0,-1 -9,7 -9,8l31 31c0,0 0,1 1,1 0,0 0,0 0,0 0,-1 1,-1 1,-1 5,-13 21,-40 42,-59 0,0 1,-1 0,-1 0,0 -3,-5 -3,-5z"/>
   <path class="fil9" d="M863 6457c-47,0 -55,-18 -55,-18 0,-1 -1,-1 -2,-1 0,0 0,0 0,0 -1,0 -2,0 -2,1 0,0 -8,18 -55,18 -1,0 -2,1 -2,2l0 80c0,32 56,57 58,58 0,1 1,1 1,1 0,0 1,0 1,-1 2,-1 58,-26 58,-58l0 -80c0,-1 -1,-2 -2,-2zm-11 77c0,26 -43,45 -45,46 0,0 -1,0 -1,0 0,0 0,0 -1,0 -2,-1 -45,-20 -45,-46l0 -62c0,-1 0,-2 1,-2 37,0 43,-14 43,-14 1,-1 1,-1 2,-1 0,0 0,0 0,0 1,0 1,0 2,1 0,0 6,14 43,14 1,0 1,1 1,2l0 62 0 0z"/>
   <path class="fil9" d="M1260 6668c-16,0 -30,-6 -41,-17 -23,-23 -23,-60 0,-82l179 -179c14,-15 33,-22 54,-22 20,0 39,7 54,22 14,14 22,34 22,54 0,20 -8,39 -22,54l-141 141c-5,4 -11,4 -16,0 -4,-5 -4,-11 0,-16l141 -140c11,-11 16,-25 16,-39 0,-15 -5,-28 -16,-39 -10,-10 -24,-16 -38,-16 -15,0 -29,6 -39,16l-179 179c-14,14 -14,37 0,51 14,14 38,14 51,0l120 -120c4,-3 5,-8 5,-12 0,-5 -1,-9 -5,-13 -7,-6 -18,-6 -24,0l-83 82c-4,5 -11,5 -15,0 -4,-4 -4,-11 0,-15l82 -82c15,-15 40,-15 56,0 7,8 11,17 11,28 0,10 -4,20 -11,27l-120 121c-11,11 -26,17 -41,17z"/>
   <path id="Facebook_Places" class="fil5" d="M1970 6477c-1,-2 -2,-4 -3,-6 -10,-25 -32,-33 -51,-33 -24,0 -50,16 -54,49l0 7c0,0 0,3 0,4 2,16 15,33 24,49 10,17 21,34 31,51 7,-11 13,-22 19,-33 2,-3 4,-6 6,-9 1,-2 3,-4 4,-6 10,-19 26,-37 26,-56l0 -7c0,-2 -2,-9 -2,-10zm-53 35c-7,0 -15,-4 -19,-14 0,-1 0,-4 0,-5l0 -4c0,-13 10,-18 19,-18 12,0 21,9 21,20 0,12 -10,21 -21,21z"/>
  </g>
 </g>
</svg>
